<?xml version="1.0" encoding="UTF-8"?>
<svg xmlns="http://www.w3.org/2000/svg" xmlns:xlink="http://www.w3.org/1999/xlink" width="36px" height="41px" viewBox="0 0 36 41" version="1.1">
<g id="surface1">
<path style=" stroke:none;fill-rule:evenodd;fill:rgb(92.941176%,93.333333%,94.117647%);fill-opacity:1;" d="M -0.078125 -0.078125 C 11.921875 -0.078125 23.921875 -0.078125 35.921875 -0.078125 C 35.921875 13.589844 35.921875 27.253906 35.921875 40.921875 C 23.921875 40.921875 11.921875 40.921875 -0.078125 40.921875 C -0.078125 27.253906 -0.078125 13.589844 -0.078125 -0.078125 Z M -0.078125 -0.078125 "/>
<path style=" stroke:none;fill-rule:evenodd;fill:rgb(98.431373%,21.568627%,4.705882%);fill-opacity:1;" d="M 15.972656 3.648438 C 17.382812 3.617188 18.785156 3.695312 20.183594 3.882812 C 20.671875 4.664062 20.984375 5.519531 21.117188 6.445312 C 22.308594 6.664062 23.425781 7.078125 24.46875 7.6875 C 25.160156 7.304688 25.859375 6.941406 26.570312 6.601562 C 28.148438 7.472656 29.394531 8.691406 30.3125 10.25 C 29.910156 10.949219 29.542969 11.675781 29.222656 12.425781 C 29.765625 13.4375 30.207031 14.496094 30.546875 15.609375 C 31.398438 15.941406 32.226562 16.304688 33.039062 16.695312 C 33.144531 18.25 33.144531 19.800781 33.039062 21.355469 C 32.960938 21.535156 32.832031 21.664062 32.648438 21.742188 C 31.925781 21.917969 31.222656 22.148438 30.546875 22.441406 C 30.191406 23.5625 29.75 24.652344 29.222656 25.703125 C 29.519531 26.347656 29.855469 26.96875 30.234375 27.566406 C 30.335938 27.773438 30.335938 27.980469 30.234375 28.1875 C 29.273438 29.351562 28.207031 30.414062 27.039062 31.371094 C 26.082031 31.324219 25.226562 30.988281 24.46875 30.363281 C 24.234375 29.558594 24.519531 29.273438 25.324219 29.507812 C 25.703125 29.710938 26.09375 29.890625 26.492188 30.050781 C 27.476562 29.460938 28.28125 28.683594 28.910156 27.722656 C 28.503906 27.066406 28.140625 26.394531 27.816406 25.703125 C 28.578125 24.449219 29.121094 23.101562 29.453125 21.664062 C 30.171875 21.15625 30.976562 20.84375 31.871094 20.734375 C 32.027344 19.648438 32.054688 18.5625 31.949219 17.472656 C 31.105469 17.242188 30.300781 16.933594 29.53125 16.539062 C 29.1875 15.070312 28.617188 13.699219 27.816406 12.425781 C 28.121094 11.691406 28.484375 10.992188 28.910156 10.328125 C 28.28125 9.363281 27.476562 8.585938 26.492188 8 C 25.839844 8.414062 25.136719 8.726562 24.390625 8.929688 C 23.050781 8.25 21.648438 7.707031 20.183594 7.300781 C 19.894531 6.570312 19.6875 5.820312 19.558594 5.046875 C 18.417969 4.898438 17.277344 4.871094 16.128906 4.96875 C 15.871094 5.746094 15.609375 6.523438 15.351562 7.300781 C 14.023438 7.636719 12.777344 8.152344 11.609375 8.851562 C 10.667969 8.863281 9.808594 8.578125 9.039062 8 C 8.058594 8.585938 7.253906 9.363281 6.625 10.328125 C 7.046875 10.992188 7.410156 11.691406 7.714844 12.425781 C 6.914062 13.699219 6.34375 15.070312 6 16.539062 C 5.207031 16.863281 4.398438 17.175781 3.585938 17.472656 C 3.4375 18.578125 3.515625 19.664062 3.816406 20.734375 C 4.632812 20.914062 5.386719 21.226562 6.078125 21.664062 C 6.355469 23.011719 6.875 24.253906 7.636719 25.390625 C 7.480469 26.222656 7.144531 27 6.625 27.722656 C 7.253906 28.683594 8.058594 29.460938 9.039062 30.050781 C 9.4375 29.890625 9.828125 29.710938 10.207031 29.507812 C 11.089844 29.300781 11.351562 29.609375 10.988281 30.4375 C 10.441406 30.789062 9.867188 31.101562 9.273438 31.371094 C 9.011719 31.476562 8.753906 31.476562 8.492188 31.371094 C 7.324219 30.414062 6.257812 29.351562 5.296875 28.1875 C 5.195312 27.980469 5.195312 27.773438 5.296875 27.566406 C 5.675781 26.96875 6.011719 26.347656 6.3125 25.703125 C 5.785156 24.652344 5.34375 23.5625 4.988281 22.441406 C 4.402344 22.230469 3.804688 22.050781 3.195312 21.898438 C 2.882812 21.808594 2.652344 21.628906 2.492188 21.355469 C 2.191406 19.800781 2.191406 18.246094 2.492188 16.695312 C 2.625 16.566406 2.753906 16.4375 2.882812 16.308594 C 3.609375 16.132812 4.308594 15.898438 4.988281 15.609375 C 5.324219 14.496094 5.765625 13.4375 6.3125 12.425781 C 5.988281 11.675781 5.625 10.949219 5.222656 10.25 C 6.136719 8.691406 7.382812 7.472656 8.960938 6.601562 C 9.671875 6.941406 10.371094 7.304688 11.066406 7.6875 C 12.0625 7.097656 13.128906 6.65625 14.257812 6.367188 C 14.582031 5.632812 14.867188 4.882812 15.117188 4.117188 C 15.382812 3.902344 15.671875 3.746094 15.972656 3.648438 Z M 15.972656 3.648438 "/>
<path style=" stroke:none;fill-rule:evenodd;fill:rgb(98.431373%,20.784314%,3.921569%);fill-opacity:1;" d="M 16.597656 9.550781 C 22.125 9.449219 25.632812 12.035156 27.117188 17.316406 C 27.660156 20.96875 26.542969 24 23.765625 26.402344 C 23.242188 26.578125 22.929688 26.398438 22.832031 25.859375 C 23.234375 25.222656 23.726562 24.65625 24.3125 24.148438 C 26.75 20.640625 26.695312 17.171875 24.15625 13.746094 C 20.816406 10.449219 17.101562 9.960938 13.011719 12.269531 C 9.328125 15.273438 8.523438 18.921875 10.597656 23.21875 C 11.273438 24.125 11.976562 25.003906 12.703125 25.859375 C 12.601562 26.398438 12.289062 26.578125 11.765625 26.402344 C 8.507812 23.433594 7.546875 19.832031 8.882812 15.609375 C 10.433594 12.273438 13.007812 10.253906 16.597656 9.550781 Z M 16.597656 9.550781 "/>
<path style=" stroke:none;fill-rule:evenodd;fill:rgb(97.254902%,23.921569%,8.235294%);fill-opacity:1;" d="M 13.167969 28.1875 C 14.136719 28.160156 14.34375 28.546875 13.792969 29.351562 C 12.925781 29.296875 12.71875 28.90625 13.167969 28.1875 Z M 13.167969 28.1875 "/>
<path style=" stroke:none;fill-rule:evenodd;fill:rgb(98.431373%,21.568627%,5.098039%);fill-opacity:1;" d="M 15.039062 15.917969 C 16.859375 15.894531 18.675781 15.917969 20.492188 15.996094 C 20.789062 16.277344 20.867188 16.613281 20.726562 17.003906 C 20.347656 17.710938 20.007812 18.4375 19.714844 19.179688 C 21.316406 24.300781 22.898438 29.425781 24.46875 34.554688 C 24.570312 34.8125 24.570312 35.074219 24.46875 35.332031 C 22.28125 36.757812 20.050781 38.101562 17.765625 39.371094 C 15.484375 38.101562 13.25 36.757812 11.066406 35.332031 C 11.28125 33.699219 11.722656 32.121094 12.390625 30.59375 C 12.964844 30.378906 13.277344 30.558594 13.324219 31.136719 C 13.113281 32.140625 12.824219 33.125 12.46875 34.089844 C 12.34375 34.363281 12.371094 34.621094 12.546875 34.867188 C 14.226562 35.84375 15.890625 36.855469 17.53125 37.894531 C 17.6875 37.996094 17.84375 37.996094 18 37.894531 C 19.558594 36.960938 21.117188 36.03125 22.675781 35.097656 C 22.90625 34.984375 23.0625 34.800781 23.144531 34.554688 C 21.636719 29.582031 20.128906 24.613281 18.625 19.644531 C 18.050781 19.644531 17.480469 19.644531 16.910156 19.644531 C 16.226562 21.976562 15.523438 24.304688 14.804688 26.632812 C 14.25 27.105469 13.863281 27.003906 13.636719 26.324219 C 14.332031 23.933594 15.058594 21.550781 15.816406 19.179688 C 15.523438 18.4375 15.1875 17.710938 14.804688 17.003906 C 14.675781 16.589844 14.753906 16.230469 15.039062 15.917969 Z M 15.039062 15.917969 "/>
<path style=" stroke:none;fill-rule:evenodd;fill:rgb(92.941176%,92.941176%,93.333333%);fill-opacity:1;" d="M 19.089844 17.472656 C 18.972656 18.238281 18.53125 18.546875 17.765625 18.402344 C 17 18.546875 16.558594 18.238281 16.441406 17.472656 C 17.324219 17.265625 18.207031 17.265625 19.089844 17.472656 Z M 19.089844 17.472656 "/>
<path style=" stroke:none;fill-rule:evenodd;fill:rgb(95.294118%,67.058824%,60.784314%);fill-opacity:1;" d="M 19.089844 17.472656 C 18.207031 17.265625 17.324219 17.265625 16.441406 17.472656 C 16.355469 17.460938 16.304688 17.410156 16.285156 17.316406 C 17.273438 17.109375 18.261719 17.109375 19.246094 17.316406 C 19.226562 17.410156 19.175781 17.460938 19.089844 17.472656 Z M 19.089844 17.472656 "/>
</g>
</svg>
